<?xml version="1.0" encoding="UTF-8" standalone="no"?>
<!-- Created with Inkscape (http://www.inkscape.org/) -->

<svg
   width="70mm"
   height="70mm"
   viewBox="0 0 70 70"
   version="1.1"
   id="svg1"
   xml:space="preserve"
   inkscape:version="1.4.2 (2aeb623e1d, 2025-05-12)"
   sodipodi:docname="logo_white.svg"
   inkscape:export-filename="../11b819d4/logo_white_plain.svg"
   inkscape:export-xdpi="96"
   inkscape:export-ydpi="96"
   xmlns:inkscape="http://www.inkscape.org/namespaces/inkscape"
   xmlns:sodipodi="http://sodipodi.sourceforge.net/DTD/sodipodi-0.dtd"
   xmlns:xlink="http://www.w3.org/1999/xlink"
   xmlns="http://www.w3.org/2000/svg"
   xmlns:svg="http://www.w3.org/2000/svg"><sodipodi:namedview
     id="namedview1"
     pagecolor="#ffffff"
     bordercolor="#000000"
     borderopacity="0.25"
     inkscape:showpageshadow="2"
     inkscape:pageopacity="0.0"
     inkscape:pagecheckerboard="0"
     inkscape:deskcolor="#d1d1d1"
     inkscape:document-units="mm"
     inkscape:zoom="2.8284271"
     inkscape:cx="52.325902"
     inkscape:cy="138.0626"
     inkscape:window-width="2560"
     inkscape:window-height="1403"
     inkscape:window-x="0"
     inkscape:window-y="0"
     inkscape:window-maximized="1"
     inkscape:current-layer="layer2"
     showguides="true"><sodipodi:guide
       position="35.000001,70.000002"
       orientation="-1,0"
       id="guide4"
       inkscape:locked="false"
       inkscape:label=""
       inkscape:color="rgb(0,134,229)" /></sodipodi:namedview><defs
     id="defs1"><linearGradient
       id="linearGradient92"
       inkscape:collect="always"><stop
         style="stop-color:#39e6f7;stop-opacity:1;"
         offset="0"
         id="stop93" /><stop
         style="stop-color:#5e79f2;stop-opacity:1;"
         offset="0.54248863"
         id="stop95" /><stop
         style="stop-color:#8721e6;stop-opacity:1;"
         offset="1"
         id="stop94" /></linearGradient><linearGradient
       id="swatch40"
       inkscape:swatch="solid"><stop
         style="stop-color:#00da50;stop-opacity:1;"
         offset="0"
         id="stop40" /></linearGradient><linearGradient
       inkscape:collect="always"
       xlink:href="#linearGradient92"
       id="linearGradient94"
       x1="93.860252"
       y1="56.103256"
       x2="93.860252"
       y2="3.4142618"
       gradientUnits="userSpaceOnUse" /><filter
       style="color-interpolation-filters:sRGB;"
       inkscape:label="Color Shift"
       id="filter12"
       x="0"
       y="0"
       width="1"
       height="1"><feColorMatrix
         type="hueRotate"
         values="180"
         result="color1"
         id="feColorMatrix11" /><feColorMatrix
         type="saturate"
         values="1"
         result="fbSourceGraphic"
         id="feColorMatrix12" /><feColorMatrix
         result="fbSourceGraphicAlpha"
         in="fbSourceGraphic"
         values="0 0 0 -1 0 0 0 0 -1 0 0 0 0 -1 0 0 0 0 1 0"
         id="feColorMatrix13" /><feColorMatrix
         id="feColorMatrix14"
         type="hueRotate"
         values="180"
         result="color1"
         in="fbSourceGraphic" /><feColorMatrix
         id="feColorMatrix15"
         type="saturate"
         values="1"
         result="fbSourceGraphic" /><feColorMatrix
         result="fbSourceGraphicAlpha"
         in="fbSourceGraphic"
         values="0 0 0 -1 0 0 0 0 -1 0 0 0 0 -1 0 0 0 0 1 0"
         id="feColorMatrix16" /><feColorMatrix
         id="feColorMatrix17"
         type="hueRotate"
         values="180"
         result="color1"
         in="fbSourceGraphic" /><feColorMatrix
         id="feColorMatrix18"
         type="saturate"
         values="1"
         result="color2" /></filter></defs><g
     inkscape:groupmode="layer"
     id="layer2"
     inkscape:label="Drone"
     style="display:inline;opacity:1;mix-blend-mode:normal;fill:url(#linearGradient94)"><use
       x="0"
       y="0"
       xlink:href="#path8"
       id="use13"
       inkscape:label="trail_mirror"
       transform="matrix(-1,0,0,1,70.082828,-0.1262812)"
       style="display:inline;fill:#ffffff;fill-opacity:1" /><use
       x="0"
       y="0"
       xlink:href="#path5"
       id="use8"
       transform="matrix(-1,0,0,1,70.091308,-0.0471262)"
       inkscape:label="props_mirror"
       style="display:inline;fill:#ffffff;fill-opacity:1" /><use
       x="0"
       y="0"
       xlink:href="#path4"
       id="use4"
       transform="matrix(-1,0,0,1,69.999578,0)"
       inkscape:label="frame_mirror"
       style="display:inline;fill:#ffffff;fill-opacity:1" /><path
       id="path8"
       style="opacity:1;fill:#ffffff;fill-opacity:1;fill-rule:nonzero;stroke:none;stroke-width:1.2;stroke-linejoin:round;stroke-opacity:1"
       d="m 30.978119,4.7996861 -1.767849,15.9954059 1.700668,0.72502 z m -8.369513,5.9391719 -1.227832,9.471773 1.247985,-0.09353 z m -7.53029,3.367753 -2.508374,10.664982 1.432471,-1.169954 z m -5.23844,10.523906 -3.1393429,13.31805 1.946651,-1.013892 z m 1.964677,4.507502 -0.713591,6.588978 1.146184,-0.526066 z M 5.7471021,30.710766 1.5205186,43.860523 3.4964225,41.304718 Z"
       inkscape:label="trail"
       sodipodi:nodetypes="cccccccccccccccccccccccc" /><path
       id="path5"
       style="display:inline;opacity:1;fill:#ffffff;fill-opacity:1;fill-rule:nonzero;stroke:none;stroke-width:1.2;stroke-linejoin:round;stroke-opacity:1"
       d="m 15.569505,21.829695 c -3.648232,1.987818 -3.851797,4.428221 -2.511738,6.051269 1.230515,1.490371 4.41151,2.337309 7.253304,2.389518 2.22327,0.04085 4.499984,-0.457853 4.499984,-0.457853 0,0 -3.518181,0.329 -5.614644,-0.07441 -1.758467,-0.338375 -3.908008,-0.673834 -5.053439,-2.76934 -1.450267,-2.653187 2.127916,-4.723906 4.44314,-5.612577 2.315223,-0.888672 4.494721,-1.370012 8.229472,-0.895036 3.44883,0.438613 5.488934,2.131471 5.627044,3.795117 0.07157,0.862083 -0.37413,1.777153 -0.37413,1.777153 0,0 0.920871,-0.550295 0.920871,-2.051037 0,-2.414255 -3.663,-4.237868 -8.386251,-4.237868 -3.222642,0 -6.111891,0.4931 -9.033613,2.085064 z m 3.350954,-0.154037 c -1.571278,0.681404 -3.833829,2.001793 -3.718074,3.754658 0.115755,1.752864 3.069017,2.921938 4.888028,3.037693 1.81901,0.115755 2.576764,-0.147912 2.576764,-0.147912 0,0 -1.686976,-0.03634 -2.841347,-0.315109 -1.364147,-0.32943 -2.628294,-0.84955 -3.023335,-2.017448 -0.452367,-1.337376 0.493257,-2.728516 2.378413,-3.555339 1.382414,-0.606322 3.362605,-1.077656 5.837369,-0.988053 2.397787,0.08682 4.322219,1.179472 4.6853,2.246221 0.190914,0.533043 0.211413,1.194988 0.211413,1.194988 0,0 0.44835,-1.06648 0.16623,-1.727107 -0.249931,-0.585253 -1.40297,-1.870945 -3.660353,-2.195787 -2.875432,-0.41378 -5.078384,-0.173467 -7.500408,0.713195 z M 5.1657422,38.929385 c -3.4481978,2.915253 -6.9325265,9.594521 -2.6458008,14.559442 4.4238204,5.211048 13.2860876,4.561665 18.5236586,2.290696 8.406305,-3.644907 10.359478,-9.062013 10.835958,-12.108004 0.0981,-0.980684 0.14717,-2.618129 -0.74021,-4.219178 0.0774,0.575088 0.5116,2.196347 -0.13487,4.46072 -1.52963,5.357813 -8.412216,9.320888 -12.865367,10.316744 C 13.645827,55.234635 8.4557257,55.052756 5.2237218,51.416687 1.7573377,47.516936 3.9383469,42.465385 6.5378532,39.707125 9.3094926,36.766221 13.701071,34.518453 17.67609,34.057331 c 3.712009,-0.489078 6.242706,-0.134226 6.242706,-0.134226 0,0 -1.876321,-0.752501 -5.369186,-0.484302 -5.06259,0.38873 -9.1333906,1.897048 -13.3838678,5.490582 z M 18.80677,35.611758 c -1.081071,-0.0124 -2.444675,0.0849 -3.561539,0.413412 -2.507208,0.737463 -5.134404,2.081068 -7.1933599,3.985286 -2.3359969,2.160438 -4.1818237,5.968503 -2.0670567,9.268685 1.7368634,2.710448 5.7277096,3.787909 8.8966146,3.604948 5.69696,-0.481553 11.032741,-3.722753 12.553421,-7.954624 0.840904,-2.340135 0.283004,-3.381118 0.283004,-3.381118 0,0 -0.117517,1.425802 -1.203614,3.243983 -0.710121,1.188776 -4.708777,5.033287 -9.083359,5.563931 -2.794661,0.338997 -5.904775,0.346007 -8.3166636,-2.065882 -1.9135792,-1.913579 -1.4039303,-4.965965 0.1787194,-7.309115 1.6637802,-2.463266 5.5996392,-4.459168 8.0654352,-4.83667 1.951302,-0.330729 3.327353,-0.400544 3.327353,-0.400544 0,0 -0.797884,-0.119885 -1.878955,-0.132292 z"
       inkscape:label="props"
       sodipodi:nodetypes="ssscssssscssssscssssscsssssccsssssccssssssscssssscsss" /><path
       id="path4"
       style="display:inline;opacity:1;fill:#ffffff;fill-opacity:1;fill-rule:nonzero;stroke:none;stroke-width:1.2;stroke-linejoin:round;stroke-opacity:1"
       inkscape:label="frame"
       d="m 23.763057,22.201208 c -0.978369,-0.0029 -2.051579,0.123233 -2.895948,0.481624 -3.366021,1.428703 -2.19934,3.12318 -1.169832,3.607724 0.417482,0.196491 1.260781,0.409186 1.686019,0.467109 0.68151,0.09283 3.096989,1.126636 3.73418,1.465772 0.327121,0.174106 3.408081,1.153894 3.408081,3.212349 0,1.902704 -1.794017,2.978697 -5.10351,4.427765 -2.83052,1.23935 -4.528691,1.898889 -6.969138,2.457086 -3.621378,0.828309 -7.0108208,4.363045 -5.537404,7.386387 1.261169,2.587825 5.975262,3.086278 9.45996,1.175294 1.140035,-0.625187 2.467526,-1.679119 3.100472,-2.995351 0.70038,-1.456464 5.203742,-5.281294 6.830911,-6.436044 1.343133,-0.953179 2.4356,-1.187008 4.69273,-1.187008 v -1.451074 c -1.97794,0 -4.64933,-0.882187 -4.64933,-2.889229 0,-2.007525 2.7413,-2.881478 4.64933,-2.881478 v -0.999939 c -0.97992,0 -2.33183,0.118276 -3.98373,-1.028878 -1.683811,-1.169308 -2.838247,-1.989638 -3.634407,-3.472139 -0.460142,-0.856815 -1.98777,-1.33511 -3.618384,-1.33997 z m -0.36897,0.736389 c 1.000144,0 2.190512,0.285611 2.441712,0.780831 0.409258,0.806819 0.549492,1.075489 1.344621,1.929081 0.795126,0.853592 2.397044,1.999423 3.355868,2.630847 0.95886,0.479414 -0.14006,1.099441 -0.87675,0.842194 -0.99389,-0.5028 -4.214456,-2.010187 -5.881515,-2.677741 -1.944955,-0.778833 -1.925649,-0.422107 -2.832385,-0.776696 -1.112133,-0.434912 -1.238953,-1.527884 0.335897,-2.247925 0.428335,-0.19584 1.470351,-0.477543 2.112532,-0.480591 z m 11.605491,7.141683 c -2.26494,0 -2.82618,1.20465 -2.82618,1.742529 0,0.52828 0.52766,1.730127 2.82618,1.730127 z m -4.685793,5.21628 c -0.07154,0.493114 -0.956278,0.884286 -2.461096,2.025301 -1.504818,1.141016 -5.248734,4.227487 -6.472432,6.129179 -1.223698,1.901693 -2.930813,2.463101 -4.469343,2.599061 -1.753863,0.154988 -2.962272,-0.471367 -3.591593,-1.38505 -0.594571,-1.258181 -0.09722,-2.525352 1.167725,-3.718353 0.992678,-0.93622 2.20557,-1.20785 3.337872,-1.431335 1.676992,-0.330993 3.654557,-1.289843 5.589323,-2.050521 1.934766,-0.760677 5.183742,-2.840086 5.911369,-2.873504 0.603965,-0.02774 1.051812,0.266587 0.988175,0.705222 z"
       sodipodi:nodetypes="ssssssssssssccsccssssssccssssscsccsssscsssss" /></g></svg>
